<?xml version="1.0" encoding="utf-8"?>
<!-- Generator: Adobe Illustrator 22.0.0, SVG Export Plug-In . SVG Version: 6.00 Build 0)  -->
<svg version="1.1" id="Layer_1" xmlns="http://www.w3.org/2000/svg" xmlns:xlink="http://www.w3.org/1999/xlink" x="0px" y="0px"
	 viewBox="0 0 2736 1824" style="enable-background:new 0 0 2736 1824;" xml:space="preserve">
<style type="text/css">
	.st0{fill:none;stroke:#000000;stroke-width:9;stroke-miterlimit:10;}
</style>
<g>
	<g>
		<path d="M562.7,839.7c9-9.1,17.9-18.2,26.9-27.2c21.6-21.9,43.2-43.9,64.9-65.8c26-26.4,52.1-52.9,78.1-79.3
			c22.6-23,45.2-45.9,67.9-68.9c10.9-11.1,22.4-21.8,32.8-33.3c0.1-0.2,0.3-0.3,0.5-0.5c5.4-5.5-3.1-14-8.5-8.5
			c-9,9.1-17.9,18.2-26.9,27.2c-21.6,21.9-43.2,43.9-64.9,65.8c-26,26.4-52.1,52.9-78.1,79.3c-22.6,23-45.2,45.9-67.9,68.9
			c-10.9,11.1-22.4,21.8-32.8,33.3c-0.1,0.2-0.3,0.3-0.5,0.5C548.8,836.8,557.3,845.3,562.7,839.7L562.7,839.7z"/>
	</g>
</g>
<g>
	<g>
		<path d="M651.7,838.7c9-9.1,17.9-18.2,26.9-27.2c21.6-21.9,43.2-43.9,64.9-65.8c26-26.4,52.1-52.9,78.1-79.3
			c22.6-23,45.2-45.9,67.9-68.9c10.9-11.1,22.4-21.8,32.8-33.3c0.1-0.2,0.3-0.3,0.5-0.5c5.4-5.5-3.1-14-8.5-8.5
			c-9,9.1-17.9,18.2-26.9,27.2c-21.6,21.9-43.2,43.9-64.9,65.8c-26,26.4-52.1,52.9-78.1,79.3c-22.6,23-45.2,45.9-67.9,68.9
			c-10.9,11.1-22.4,21.8-32.8,33.3c-0.1,0.2-0.3,0.3-0.5,0.5C637.8,835.8,646.3,844.3,651.7,838.7L651.7,838.7z"/>
	</g>
</g>
<g>
	<g>
		<path d="M608.7,838.7c9-9.1,17.9-18.2,26.9-27.2c21.6-21.9,43.2-43.9,64.9-65.8c26-26.4,52.1-52.9,78.1-79.3
			c22.6-23,45.2-45.9,67.9-68.9c10.9-11.1,22.4-21.8,32.8-33.3c0.1-0.2,0.3-0.3,0.5-0.5c5.4-5.5-3.1-14-8.5-8.5
			c-9,9.1-17.9,18.2-26.9,27.2c-21.6,21.9-43.2,43.9-64.9,65.8c-26,26.4-52.1,52.9-78.1,79.3c-22.6,23-45.2,45.9-67.9,68.9
			c-10.9,11.1-22.4,21.8-32.8,33.3c-0.1,0.2-0.3,0.3-0.5,0.5C594.8,835.8,603.3,844.3,608.7,838.7L608.7,838.7z"/>
	</g>
</g>
<g>
	<g>
		<path d="M918.5,565.5c7.7,0,7.7-12,0-12C910.8,553.5,910.8,565.5,918.5,565.5L918.5,565.5z"/>
	</g>
</g>
<g>
	<g>
		<path d="M912.5,559.3c-0.2,30.4-0.5,60.9-0.7,91.3c-0.4,48.5-0.7,97-1.1,145.4c-0.1,11.1-0.2,22.2-0.2,33.2
			c-0.1,7.7,11.9,7.7,12,0c0.2-30.4,0.5-60.9,0.7-91.3c0.4-48.5,0.7-97,1.1-145.4c0.1-11.1,0.2-22.2,0.2-33.2
			C924.6,551.5,912.6,551.5,912.5,559.3L912.5,559.3z"/>
	</g>
</g>
<g>
	<g>
		<path d="M969.5,559.5c0,30.4,0,60.8,0,91.2c0,48.5,0,96.9,0,145.4c0,11.1,0,22.3,0,33.4c0,7.7,12,7.7,12,0c0-30.4,0-60.8,0-91.2
			c0-48.5,0-96.9,0-145.4c0-11.1,0-22.3,0-33.4C981.5,551.8,969.5,551.8,969.5,559.5L969.5,559.5z"/>
	</g>
</g>
<g>
	<g>
		<path d="M940.5,559.5c0,30.4,0,60.8,0,91.2c0,48.5,0,96.9,0,145.4c0,11.1,0,22.3,0,33.4c0,7.7,12,7.7,12,0c0-30.4,0-60.8,0-91.2
			c0-48.5,0-96.9,0-145.4c0-11.1,0-22.3,0-33.4C952.5,551.8,940.5,551.8,940.5,559.5L940.5,559.5z"/>
	</g>
</g>
<line class="st0" x1="975.5" y1="651.5" x2="1046.5" y2="559.5"/>
<line class="st0" x1="975.5" y1="679.5" x2="1074.5" y2="559.5"/>
<line class="st0" x1="975.5" y1="707.5" x2="1101.5" y2="559.5"/>
<line class="st0" x1="975.5" y1="707.5" x2="1101.5" y2="829.5"/>
<path class="st0" d="M1074.5,829.5"/>
<path class="st0" d="M1074.5,559.5"/>
<line class="st0" x1="975.5" y1="735.5" x2="1074.5" y2="829.5"/>
<path class="st0" d="M1046.5,829.5"/>
<path class="st0" d="M1046.5,559.5"/>
<line class="st0" x1="975.5" y1="763.5" x2="1046.5" y2="829.5"/>
<line class="st0" x1="794.5" y1="724.5" x2="919" y2="724.5"/>
<line class="st0" x1="767.5" y1="746.5" x2="917.5" y2="747.5"/>
<line class="st0" x1="739.5" y1="768.5" x2="917" y2="768.5"/>
<g>
</g>
<g>
</g>
<g>
</g>
<g>
</g>
<g>
</g>
<g>
</g>
<g>
</g>
<g>
</g>
<g>
</g>
<g>
</g>
<g>
</g>
</svg>
